<svg xmlns="http://www.w3.org/2000/svg" viewBox="0 0 64 64">
  <!-- Pixel-art crab on 4px grid -->
  <g fill="#f97316">
    <!-- Claws -->
    <rect x="4" y="16" width="4" height="4"/>
    <rect x="8" y="12" width="4" height="4"/>
    <rect x="8" y="20" width="4" height="4"/>
    <rect x="56" y="16" width="4" height="4"/>
    <rect x="52" y="12" width="4" height="4"/>
    <rect x="52" y="20" width="4" height="4"/>
    <!-- Arms -->
    <rect x="12" y="20" width="4" height="4"/>
    <rect x="48" y="20" width="4" height="4"/>
  </g>
  <g fill="#f59e0b">
    <!-- Body -->
    <rect x="16" y="20" width="32" height="4"/>
    <rect x="12" y="24" width="40" height="4"/>
    <rect x="12" y="28" width="40" height="4"/>
    <rect x="16" y="32" width="32" height="4"/>
    <rect x="20" y="36" width="24" height="4"/>
  </g>
  <g fill="#000000">
    <!-- Eyes -->
    <rect x="20" y="24" width="4" height="4"/>
    <rect x="40" y="24" width="4" height="4"/>
  </g>
  <g fill="#f97316">
    <!-- Legs -->
    <rect x="12" y="36" width="4" height="4"/>
    <rect x="8" y="40" width="4" height="4"/>
    <rect x="20" y="40" width="4" height="4"/>
    <rect x="16" y="44" width="4" height="4"/>
    <rect x="28" y="40" width="4" height="4"/>
    <rect x="28" y="44" width="4" height="4"/>
    <rect x="48" y="36" width="4" height="4"/>
    <rect x="52" y="40" width="4" height="4"/>
    <rect x="40" y="40" width="4" height="4"/>
    <rect x="44" y="44" width="4" height="4"/>
    <rect x="32" y="40" width="4" height="4"/>
    <rect x="32" y="44" width="4" height="4"/>
  </g>
</svg>
